PathFileType	3	(X/Y/Z)	D:\minhoCalibration\240510\subject5_KPNP\preferred\preferred03.trc
DataRate	CameraRate	NumFrames	NumMarkers	Units	OrigDataRate	OrigDataStartFrame	OrigNumFrames
200.0	200.0	18	10	mm	200.0	260	191	
Frame#	Time	Left_Ankle_Outer1			Left_Ankle_Inner1			Left_Knee_Outer1			Left_Knee_Inner1			Left_Wrist1			Right_Wrist1			Right_Knee_Inner1			Right_Knee_Outer1			Right_Ankle_Inner1			Right_Ankle_Outer1			
		X1	Y1	Z1	X2	Y2	Z2	X3	Y3	Z3	X4	Y4	Z4	X5	Y5	Z5	X6	Y6	Z6	X7	Y7	Z7	X8	Y8	Z8	X9	Y9	Z9	X10	Y10	Z10	
260	1.29	-556.62732	75.184792	-625.58661	-596.75165	84.664307	-596.42322	-424.71814	530.98456	-523.45221	-512.89862	515.70197	-488.80249	-452.23898	992.71838	-718.61871	-776.82953	1022.2417	-754.8327	-855.39142	477.63867	-679.81903	-923.23285	532.57031	-712.71936	-781.40155	183.3985	-1028.4763	-830.11731	251.67596	-1079.9342
261	1.295	-556.34613	75.113037	-625.58344	-597.70178	86.790504	-594.08167	-423.07239	530.59131	-523.42889	-511.00015	515.19928	-488.6539	-448.69263	994.04999	-716.46918	-774.2934	1023.2352	-749.95111	-854.56464	480.77823	-661.46149	-922.81421	535.75616	-693.5376	-783.81097	191.13773	-1014.6174	-833.53107	259.88321	-1063.6632
262	1.3	-556.08051	74.897949	-625.72034	-596.54718	85.29847	-596.4176	-421.39206	529.95679	-523.5611	-509.06503	514.78979	-488.60031	-445.08673	995.38513	-714.41327	-771.15802	1024.2297	-744.84918	-853.22284	484.54147	-642.98499	-922.56219	539.3681	-673.33911	-785.60974	199.40997	-1000.3278	-837.20935	268.82565	-1047.2964
263	1.305	-555.70105	74.865692	-625.82446	-596.11859	85.568192	-596.44696	-419.46283	529.50922	-523.88959	-507.06946	514.49982	-488.76035	-441.70502	996.4668	-712.80865	-767.56732	1025.8121	-741.52881	-851.33777	488.77206	-624.30939	-921.56592	544.01874	-653.20172	-787.37543	208.39772	-985.2254	-840.83777	277.38596	-1030.1229
264	1.31	-555.34094	74.781807	-626.00006	-595.49713	85.746017	-596.76569	-417.81464	529.03906	-524.30084	-505.05792	514.34119	-488.98529	-438.19186	997.44708	-711.77295	-765.01788	1027.0984	-736.52173	-849.31195	493.73434	-605.72552	-919.43292	548.44781	-635.51367	-788.59027	217.58659	-969.66052	-843.8916	285.98489	-1012.9321
265	1.315	-554.74561	74.774216	-626.36047	-595.24231	85.691116	-597.31	-415.92337	528.66083	-525.01788	-503.07178	514.33948	-489.43378	-434.97656	998.40576	-710.61377	-761.20886	1028.7037	-732.82538	-846.78693	498.8887	-587.67639	-918.57019	554.22192	-614.09937	-789.42737	226.65236	-953.72668	-846.46283	294.48529	-995.50458
266	1.32	-554.26337	74.859825	-626.6214	-594.84503	85.771729	-597.79865	-414.1691	528.29828	-525.72485	-501.12897	514.30927	-489.82404	-431.69516	999.21869	-709.87579	-760.27832	1030.6165	-730.56287	-844.50146	504.60065	-568.93549	-916.82343	560.44482	-593.81073	-789.86011	235.58067	-937.37653	-848.36053	302.98935	-977.93414
267	1.325	-554.09369	74.842567	-626.77808	-594.50238	86.144333	-597.76819	-412.63257	527.97858	-526.89026	-499.11218	514.27618	-490.4989	-428.52829	1000.0225	-709.3197	-755.57922	1033.76	-721.95526	-841.8382	510.54907	-550.54767	-914.40112	566.84137	-574.67126	-789.22565	244.54521	-921.0592	-849.70197	311.42227	-960.29486
268	1.33	-553.75134	75.008171	-627.05457	-593.08734	85.594398	-598.83905	-410.96164	527.7688	-528.15155	-497.1008	514.26984	-491.24933	-425.48578	1000.7335	-709.10541	-754.0401	1036.5321	-714.18091	-838.78552	517.1781	-531.79364	-912.20581	573.78955	-554.51306	-788.90894	253.62178	-904.44037	-850.51538	320.01334	-942.52155
269	1.335	-553.6803	74.983147	-627.19812	-594.17206	86.691933	-597.99622	-409.35495	527.56769	-529.67633	-495.06799	514.25623	-492.07391	-422.42502	1001.2686	-709.19977	-751.63397	1039.6771	-706.57831	-835.57532	524.44684	-512.97968	-908.97687	581.1059	-534.9787	-788.32703	262.58002	-887.49884	-850.74915	328.74927	-924.61652
270	1.34	-553.45715	75.172203	-627.46423	-592.57825	86.007507	-598.96259	-407.55563	527.46143	-531.52252	-492.93185	514.1759	-493.05652	-419.61536	1001.6808	-709.5332	-747.48871	1041.1611	-705.18158	-831.6391	531.78986	-494.36768	-905.27264	589.13324	-515.41498	-788.29779	271.6973	-870.53339	-850.59558	337.57275	-906.29657
271	1.345	-553.323	75.090607	-627.73157	-593.57764	86.586891	-598.71185	-405.90103	527.1983	-533.4021	-490.66074	514.11102	-494.22433	-416.93469	1002.1032	-710.13763	-746.20764	1044.9673	-695.34094	-827.49384	540.32056	-475.74243	-901.1756	597.47943	-495.86572	-788.07263	280.55734	-853.0152	-850.28717	346.8168	-888.1167
272	1.35	-553.09985	75.184921	-628.0047	-593.02643	86.925758	-598.80463	-404.32205	526.97809	-535.5108	-488.41547	514.06299	-495.32065	-414.39313	1002.3156	-711.01318	-741.5769	1049.0503	-689.52393	-822.92212	549.138	-456.95312	-896.5929	606.36945	-476.35013	-786.88043	289.47379	-835.99066	-849.82642	356.41022	-869.7608
273	1.355	-552.23273	75.834694	-628.89032	-592.95685	86.919525	-599.43658	-402.7623	526.77039	-537.89166	-486.21265	514.16235	-496.30423	-412.10373	1002.2573	-711.92084	-738.40729	1052.1488	-683.81201	-817.39325	558.32623	-438.71948	-891.48468	615.75446	-456.91141	-786.87665	298.65073	-818.45477	-849.37036	366.27332	-851.36121
274	1.36	-551.95929	75.86869	-629.18799	-592.19379	87.491905	-599.30829	-401.01685	526.63531	-540.39075	-483.95245	514.29413	-497.40726	-409.98795	1002.8062	-713.44556	-735.48956	1055.4468	-676.3454	-811.51727	567.58295	-419.94559	-885.28271	625.59222	-437.69202	-786.92517	308.12054	-800.99945	-849.07269	376.55875	-832.84332
275	1.365	-551.62903	76.050522	-629.5094	-592.52039	87.93615	-598.89124	-399.30673	526.56097	-543.03241	-481.59967	514.39539	-498.79837	-407.75519	1003.3374	-714.78131	-732.25702	1059.0051	-668.97595	-804.85876	577.41907	-401.96832	-879.13165	635.59009	-418.29077	-788.24072	317.85767	-782.96796	-849.14978	387.12686	-814.24005
276	1.37	-551.72382	75.879288	-629.49243	-591.24072	88.229721	-599.92047	-397.83322	526.61932	-545.55084	-479.14487	514.44171	-500.28748	-405.91754	1003.7185	-716.1012	-728.24902	1063.0978	-661.95099	-797.86877	587.46594	-383.62076	-871.86292	646.31073	-398.94818	-787.87207	328.19153	-766.44983	-849.53558	398.15497	-795.76581
277	1.375	-550.80566	76.452888	-630.33331	-590.49628	88.412689	-600.79004	-396.49655	526.54755	-548.23914	-476.84824	514.61218	-501.78973	-404.17157	1004.2548	-717.76587	-724.19867	1066.6984	-656.58197	-790.24969	597.79651	-365.88098	-864.99695	657.16846	-379.91739	-788.57306	339.00012	-749.43469	-850.3479	409.634	-777.17426
